<?xml version="1.0" encoding="UTF-8"?>
<svg xmlns="http://www.w3.org/2000/svg" xmlns:xlink="http://www.w3.org/1999/xlink" width="16px" height="px" viewBox="0 0 15 13" version="1.1">
<g id="surface1">
<path style=" stroke:none;fill-rule:nonzero;fill:rgb(56.078431%,12.156863%,11.372549%);fill-opacity:1;" d="M 1.820312 8.589844 C 1.84375 8.644531 1.894531 8.683594 1.953125 8.691406 L 2.550781 8.796875 C 2.574219 8.839844 2.597656 8.878906 2.621094 8.921875 L 2.363281 9.433594 C 2.335938 9.484375 2.339844 9.546875 2.371094 9.59375 C 2.40625 9.644531 2.464844 9.671875 2.527344 9.671875 L 3.132812 9.664062 C 3.164062 9.699219 3.195312 9.738281 3.230469 9.773438 L 3.078125 10.324219 C 3.0625 10.378906 3.082031 10.4375 3.125 10.480469 C 3.167969 10.523438 3.230469 10.539062 3.289062 10.527344 L 3.886719 10.410156 C 3.921875 10.441406 3.960938 10.472656 4 10.5 L 3.96875 11.066406 C 3.964844 11.125 3.996094 11.179688 4.046875 11.214844 C 4.097656 11.246094 4.160156 11.253906 4.21875 11.230469 L 4.773438 11.007812 C 4.820312 11.03125 4.863281 11.054688 4.910156 11.078125 L 4.996094 11.636719 C 5.003906 11.695312 5.046875 11.742188 5.101562 11.765625 C 5.160156 11.789062 5.222656 11.78125 5.273438 11.75 L 5.773438 11.429688 C 5.820312 11.445312 5.871094 11.460938 5.917969 11.472656 L 6.121094 12.007812 C 6.144531 12.0625 6.191406 12.105469 6.253906 12.117188 C 6.3125 12.128906 6.375 12.109375 6.417969 12.070312 L 6.839844 11.664062 C 6.890625 11.667969 6.941406 11.675781 6.992188 11.679688 L 7.304688 12.167969 C 7.335938 12.21875 7.390625 12.25 7.453125 12.25 C 7.515625 12.25 7.574219 12.222656 7.605469 12.175781 L 7.933594 11.699219 C 7.984375 11.695312 8.035156 11.691406 8.085938 11.6875 L 8.492188 12.113281 C 8.535156 12.15625 8.597656 12.175781 8.65625 12.164062 C 8.71875 12.15625 8.769531 12.117188 8.792969 12.0625 L 9.011719 11.535156 C 9.0625 11.523438 9.113281 11.511719 9.160156 11.5 L 9.648438 11.839844 C 9.699219 11.875 9.761719 11.882812 9.820312 11.859375 C 9.878906 11.839844 9.917969 11.792969 9.929688 11.738281 L 10.039062 11.179688 C 10.082031 11.160156 10.128906 11.136719 10.171875 11.113281 L 10.722656 11.359375 C 10.777344 11.386719 10.84375 11.382812 10.894531 11.351562 C 10.945312 11.320312 10.976562 11.265625 10.976562 11.210938 L 10.964844 10.640625 C 11.003906 10.613281 11.042969 10.585938 11.082031 10.554688 L 11.671875 10.695312 C 11.734375 10.710938 11.796875 10.695312 11.839844 10.65625 C 11.886719 10.617188 11.90625 10.558594 11.890625 10.5 L 11.761719 9.945312 C 11.792969 9.910156 11.828125 9.875 11.859375 9.839844 L 12.46875 9.871094 C 12.527344 9.875 12.585938 9.847656 12.621094 9.800781 C 12.65625 9.753906 12.664062 9.695312 12.640625 9.640625 L 12.398438 9.121094 C 12.421875 9.078125 12.445312 9.039062 12.472656 8.996094 L 13.070312 8.917969 C 13.132812 8.910156 13.183594 8.871094 13.210938 8.820312 C 13.234375 8.765625 13.226562 8.707031 13.191406 8.660156 L 12.84375 8.191406 C 12.847656 8.183594 12.816406 7.707031 12.539062 7.316406 C 12.539062 7.316406 12.539062 7.316406 12.53125 7.3125 C 11.902344 6.367188 9.933594 5.648438 7.59375 5.601562 C 5.117188 5.550781 3.035156 6.269531 2.5 7.273438 C 2.257812 7.53125 2.199219 7.953125 2.207031 7.976562 L 1.84375 8.429688 C 1.804688 8.476562 1.796875 8.535156 1.820312 8.589844 Z M 1.820312 8.589844 "/>
<path style=" stroke:none;fill-rule:nonzero;fill:rgb(56.078431%,12.156863%,11.372549%);fill-opacity:1;" d="M 14.046875 6.566406 C 14.023438 6.492188 13.765625 6.511719 13.703125 6.5 L 12.769531 6.507812 C 12.746094 6.449219 12.71875 6.390625 12.695312 6.332031 L 13.300781 5.339844 C 13.328125 5.265625 13.476562 5.160156 13.441406 5.09375 C 13.40625 5.027344 13.175781 5.117188 13.113281 5.121094 L 12.148438 5.300781 C 12.113281 5.25 12.082031 5.199219 12.046875 5.148438 L 12.585938 3.871094 C 12.601562 3.792969 12.765625 3.472656 12.722656 3.414062 C 12.675781 3.355469 12.460938 3.550781 12.398438 3.566406 L 11.351562 4.273438 C 11.3125 4.230469 11.269531 4.1875 11.230469 4.148438 L 11.527344 3.039062 C 11.527344 2.960938 11.6875 2.578125 11.632812 2.53125 C 11.578125 2.484375 11.398438 2.660156 11.335938 2.691406 L 10.410156 3.457031 C 10.363281 3.425781 10.316406 3.394531 10.269531 3.363281 L 10.492188 2.054688 C 10.480469 1.976562 10.570312 1.558594 10.511719 1.527344 C 10.453125 1.496094 10.140625 1.859375 10.089844 1.90625 L 9.363281 2.890625 C 9.3125 2.871094 9.261719 2.851562 9.210938 2.832031 L 9.140625 1.347656 C 9.117188 1.269531 9.125 1 9.058594 0.984375 C 8.996094 0.96875 8.917969 1.210938 8.871094 1.269531 L 8.246094 2.59375 C 8.191406 2.585938 8.140625 2.578125 8.089844 2.574219 L 7.769531 1.050781 C 7.738281 0.980469 7.699219 0.753906 7.636719 0.753906 C 7.570312 0.753906 7.523438 1.027344 7.488281 1.09375 L 7.101562 2.574219 C 7.050781 2.578125 7 2.585938 6.945312 2.59375 L 6.398438 1.25 C 6.355469 1.191406 6.28125 0.898438 6.21875 0.914062 C 6.15625 0.929688 6.167969 1.148438 6.144531 1.222656 L 5.980469 2.832031 C 5.929688 2.851562 5.878906 2.871094 5.828125 2.890625 L 5.332031 2.214844 C 5.28125 2.167969 4.988281 1.703125 4.929688 1.734375 C 4.871094 1.765625 4.914062 2.253906 4.902344 2.332031 L 4.921875 3.363281 C 4.871094 3.394531 4.824219 3.425781 4.78125 3.457031 L 3.875 2.5625 C 3.816406 2.53125 3.691406 2.390625 3.640625 2.433594 C 3.585938 2.480469 3.628906 2.683594 3.632812 2.761719 L 3.960938 4.148438 C 3.921875 4.1875 3.878906 4.230469 3.839844 4.273438 L 2.847656 3.621094 C 2.785156 3.601562 2.589844 3.441406 2.542969 3.496094 C 2.5 3.554688 2.601562 3.613281 2.617188 3.695312 L 3.144531 5.148438 C 3.109375 5.199219 3.078125 5.25 3.042969 5.300781 L 1.421875 4.722656 C 1.359375 4.71875 1.183594 4.628906 1.144531 4.695312 C 1.109375 4.761719 1.261719 4.859375 1.289062 4.933594 L 2.496094 6.332031 C 2.46875 6.390625 2.445312 6.449219 2.421875 6.507812 L 1.246094 6.355469 C 1.183594 6.371094 1.015625 6.332031 0.992188 6.410156 C 0.96875 6.484375 1.128906 6.582031 1.167969 6.644531 L 2.042969 7.648438 C 2.042969 7.660156 2.082031 8.332031 2.378906 8.875 C 2.378906 8.875 2.382812 8.875 2.386719 8.878906 C 3.0625 10.191406 5.125 11.148438 7.570312 11.148438 C 10.152344 11.148438 12.3125 10.078125 12.851562 8.648438 C 13.097656 8.277344 13.152344 7.679688 13.144531 7.648438 L 13.859375 6.832031 C 13.898438 6.765625 14.070312 6.640625 14.046875 6.566406 Z M 14.046875 6.566406 "/>
<path style=" stroke:none;fill-rule:nonzero;fill:rgb(56.078431%,12.156863%,11.372549%);fill-opacity:1;" d="M 2.519531 7.660156 C 2.519531 7.660156 1.175781 7.867188 0.871094 7.9375 C 0.566406 8.007812 0.769531 8.0625 0.871094 8.078125 C 1.222656 8.140625 2.960938 8.1875 2.992188 8.199219 C 3.027344 8.210938 2.519531 7.660156 2.519531 7.660156 Z M 2.519531 7.660156 "/>
<path style=" stroke:none;fill-rule:nonzero;fill:rgb(56.078431%,12.156863%,11.372549%);fill-opacity:1;" d="M 12.484375 7.761719 C 12.484375 7.761719 13.832031 7.964844 14.132812 8.039062 C 14.4375 8.109375 14.234375 8.164062 14.132812 8.179688 C 13.78125 8.238281 12.046875 8.285156 12.011719 8.296875 C 11.980469 8.308594 12.484375 7.761719 12.484375 7.761719 Z M 12.484375 7.761719 "/>
<path style=" stroke:none;fill-rule:nonzero;fill:rgb(0%,0%,0%);fill-opacity:1;" d="M 5.714844 7.765625 C 5.714844 7.765625 5.132812 7.089844 4.546875 7.765625 C 4.546875 7.765625 4.085938 8.671875 4.546875 9.125 C 4.546875 9.125 5.296875 9.757812 5.714844 9.125 C 5.714844 9.125 6.214844 8.625 5.714844 7.765625 Z M 5.714844 7.765625 "/>
<path style=" stroke:none;fill-rule:nonzero;fill:rgb(100%,100%,100%);fill-opacity:1;" d="M 5.039062 8.019531 C 5.039062 8.28125 5.1875 8.496094 5.367188 8.496094 C 5.546875 8.496094 5.695312 8.28125 5.695312 8.019531 C 5.695312 7.753906 5.546875 7.539062 5.367188 7.539062 C 5.1875 7.539062 5.039062 7.753906 5.039062 8.019531 Z M 5.039062 8.019531 "/>
<path style=" stroke:none;fill-rule:nonzero;fill:rgb(0%,0%,0%);fill-opacity:1;" d="M 8.988281 7.519531 C 8.988281 7.519531 7.988281 7.046875 7.714844 8.097656 C 7.714844 8.097656 7.425781 9.324219 8.535156 9.390625 C 8.535156 9.390625 9.953125 9.101562 8.988281 7.519531 Z M 8.988281 7.519531 "/>
<path style=" stroke:none;fill-rule:nonzero;fill:rgb(100%,100%,100%);fill-opacity:1;" d="M 8.484375 7.972656 C 8.484375 8.246094 8.636719 8.464844 8.824219 8.464844 C 9.011719 8.464844 9.160156 8.246094 9.160156 7.972656 C 9.160156 7.699219 9.011719 7.480469 8.824219 7.480469 C 8.636719 7.480469 8.484375 7.699219 8.484375 7.972656 Z M 8.484375 7.972656 "/>
</g>
</svg>
